<mxfile host="app.diagrams.net" modified="2021-11-17T10:06:41.574Z" agent="5.0 (Windows NT 10.0; Win64; x64) AppleWebKit/537.36 (KHTML, like Gecko) Chrome/96.0.4664.45 Safari/537.36" etag="PQI_g9Wr8BuSM0_PFzDX" version="15.7.4" type="github">
  <diagram id="DLzQyiduDrIikC9o6ego" name="Page-1">
    <mxGraphModel dx="1422" dy="794" grid="1" gridSize="10" guides="1" tooltips="1" connect="1" arrows="1" fold="1" page="1" pageScale="1" pageWidth="1169" pageHeight="827" math="0" shadow="0">
      <root>
        <mxCell id="0" />
        <mxCell id="1" parent="0" />
        <mxCell id="Q_4Ov2yojhcQS-wfZ1ic-1" value="Raw data stored in 01_FIRM" style="rounded=1;whiteSpace=wrap;html=1;sketch=1;" vertex="1" parent="1">
          <mxGeometry x="60" y="270" width="190" height="100" as="geometry" />
        </mxCell>
        <mxCell id="Q_4Ov2yojhcQS-wfZ1ic-2" value="Dofiles to clean the data" style="strokeWidth=2;html=1;shape=mxgraph.flowchart.direct_data;whiteSpace=wrap;sketch=1;" vertex="1" parent="1">
          <mxGeometry x="310" y="280" width="180" height="80" as="geometry" />
        </mxCell>
        <mxCell id="Q_4Ov2yojhcQS-wfZ1ic-4" value="" style="endArrow=classic;html=1;rounded=0;exitX=0.537;exitY=0.02;exitDx=0;exitDy=0;exitPerimeter=0;entryX=0.5;entryY=0;entryDx=0;entryDy=0;entryPerimeter=0;sketch=1;" edge="1" parent="1" source="Q_4Ov2yojhcQS-wfZ1ic-1" target="Q_4Ov2yojhcQS-wfZ1ic-2">
          <mxGeometry width="50" height="50" relative="1" as="geometry">
            <mxPoint x="560" y="430" as="sourcePoint" />
            <mxPoint x="610" y="380" as="targetPoint" />
            <Array as="points">
              <mxPoint x="280" y="230" />
            </Array>
          </mxGeometry>
        </mxCell>
      </root>
    </mxGraphModel>
  </diagram>
</mxfile>
